# xmcd
#
# Track frame offsets: 
#        150
#        12771
#        26670
#        38571
#        49887
#        63444
#        76735
#        88451
#        101153
#        114202
#        125974
#        137125
#        148201
#        159669
#        171039
#        183138
#        196664
#        207938
#        223563
#        234721
#        246308
#        261167
#        272155
#        284238
#        296363
#        310338
#        322522
#
# Disc length: 4451 seconds
#
# Revision: 7
# Processed by: cddbd v1.5.2PL0 Copyright (c) Steve Scherf et al.
# Submitted via: ExactAudioCopy v0.90b4
#
DISCID=9311611b
DTITLE=Various Artist - Atlantic Rhythm and Blues 1947-1974, Vol. 5 (1961-1965)
DYEAR=2006
DGENRE=R&B
TTITLE0=The Coasters - Little Egypt
TTITLE1=Ben E. King - Amor
TTITLE2=The Mar-Keys - Last Night
TTITLE3=The Ikettes - I'm Blue
TTITLE4=William Bell - You Don't Miss Your Water
TTITLE5=The Falcons - I Found A Love
TTITLE6=Solomon Burke - Cry To Me
TTITLE7=Ben E. King - Don't Play That Song (You Lied)
TTITLE8=Booker T. and The MG's - Green Onions
TTITLE9=The Drifters - Up On The Roof
TTITLE10=LaVern Baker - See See Rider
TTITLE11=Ben E. King - I (Who Have Nothing)
TTITLE12=Solomon Burke - If You Need Me
TTITLE13=Otis Redding - These Arms Of Mine
TTITLE14=Barbara Lewis - Hello Stranger
TTITLE15=The Drifters - On Broadway
TTITLE16=Doris Troy - Just One Look
TTITLE17=Nat Kendrick and The Swans - Mashed Potatoes
TTITLE18=Chris Kenner - Land Of 1000 Dances
TTITLE19=Rufus Thomas - Walkin' The Dog
TTITLE20=Esther Phillips - Release Me
TTITLE21=Don Covay - Mercy, Mercy
TTITLE22=The Drifters - Under The Boardwalk
TTITLE23=Esther Phillips - And I love Him
TTITLE24=Joe Tex - Hold What You've Got
TTITLE25=Otis Redding - Mr. Pitiful
TTITLE26=Barbara Lewis - Baby I'm Yours
EXTD=1961-1965\nCD issued 1991, Atlantic, 7 82305-2
EXTT0=The Coasters
EXTT1=Ben E. King
EXTT2=The Mar-Keys
EXTT3=The Ikettes
EXTT4=William Bell
EXTT5=The Falcons
EXTT6=Solomon Burke
EXTT7=Ben E. King
EXTT8=Booker T. and The MG's
EXTT9=The Drifters
EXTT10=LaVern Baker
EXTT11=Ben E. King
EXTT12=Solomon Burke
EXTT13=Otis Redding
EXTT14=Barbara Lewis
EXTT15=The Drifters
EXTT16=Doris Troy
EXTT17=Nat Kendricks and The Swans
EXTT18=Chris Kenner
EXTT19=Rufus Thomas
EXTT20=Esther Phillips
EXTT21=Don Covay
EXTT22=The Drifters
EXTT23=Esther Phillips
EXTT24=Joe Tex
EXTT25=Otis Redding
EXTT26=Barbara Lewis
PLAYORDER=
